<?xml version="1.0" standalone="no"?>
<!DOCTYPE svg PUBLIC "-//W3C//DTD SVG 20010904//EN"
 "http://www.w3.org/TR/2001/REC-SVG-20010904/DTD/svg10.dtd">
<svg version="1.0" xmlns="http://www.w3.org/2000/svg"
 width="100.000000pt" height="100.000000pt" viewBox="0 0 100.000000 100.000000"
 preserveAspectRatio="xMidYMid meet">
<metadata>
Created by potrace 1.14, written by Peter Selinger 2001-2017
</metadata>
<g transform="translate(0.000000,100.000000) scale(0.100000,-0.100000)"
fill="#000000" stroke="none">
<path d="M140 500 l0 -500 355 0 355 0 0 500 0 500 -355 0 -355 0 0 -500z
m296 458 c8 -9 -107 -169 -117 -162 -16 10 -110 154 -105 162 5 8 214 8 222 0z
m344 -1 c0 -11 -104 -165 -112 -166 -7 -1 -118 152 -118 162 0 9 30 12 132 12
54 0 98 -3 98 -8z m-250 -41 c16 -25 30 -47 30 -50 0 -3 -29 -6 -65 -6 -36 0
-65 3 -65 6 0 7 60 94 65 94 2 0 18 -20 35 -44z m-185 -224 c81 -117 151 -209
155 -205 9 10 210 296 264 376 22 31 41 57 43 57 1 0 3 -37 3 -83 l0 -83 -157
-227 -157 -226 -34 47 c-133 183 -282 408 -283 426 -1 24 -1 139 0 146 2 7 15
-11 166 -228z m275 93 l22 -35 -56 -83 c-31 -45 -65 -92 -74 -105 l-18 -23
-64 92 c-36 51 -69 99 -73 106 -5 8 0 27 13 48 l22 35 103 0 103 0 22 -35z
m186 -740 c-2 -6 -30 -10 -65 -9 -47 1 -66 6 -76 20 -70 93 -145 215 -139 225
4 7 66 96 137 198 71 102 132 193 136 201 6 16 14 -618 7 -635z m-471 423
l136 -198 -80 -118 -81 -117 -59 1 c-32 1 -63 4 -67 7 -7 4 -11 528 -5 627 1
20 2 19 156 -202z m199 -288 l36 -50 -75 0 -75 0 32 49 c18 28 36 50 40 50 3
1 22 -21 42 -49z m77 -111 c10 -13 19 -26 19 -29 0 -4 -232 -5 -263 -1 -4 1 0
12 9 25 18 29 31 31 138 30 71 -1 81 -4 97 -25z"/>
</g>
</svg>
